<mxfile host="app.diagrams.net" modified="2023-04-06T19:14:31.673Z" agent="Mozilla/5.0 (X11; Linux x86_64) AppleWebKit/537.36 (KHTML, like Gecko) Chrome/111.0.0.0 Safari/537.36" version="21.1.4" etag="02s8vAbsUnW81dufL5t-" type="github">
  <diagram name="Page-1" id="yA7Nq4QiK2JD9FKmeiPI">
    <mxGraphModel>
      <root>
        <mxCell id="0" />
        <mxCell id="1" parent="0" />
      </root>
    </mxGraphModel>
  </diagram>
</mxfile>
